<?xml version="1.0" encoding="utf-8"?><svg viewBox="0 0 71 64" xmlns="http://www.w3.org/2000/svg" xmlns:xlink="http://www.w3.org/1999/xlink"><style>:root>svg{display:none}:root>svg:target{display:block}</style><svg viewBox="0 0 24 24" fill="none" id="goTop" xmlns="http://www.w3.org/2000/svg"><g stroke="#5c5c5c" stroke-width="1.5" stroke-linecap="round" stroke-linejoin="round"><path d="M12 22c5.523 0 10-4.477 10-10S17.523 2 12 2 2 6.477 2 12s4.477 10 10 10zm0-6.5v-6"/><path d="m9 11.5 3-3 3 3"/></g></svg><svg fill="none" viewBox="0 0 28 28" id="instagram" xmlns="http://www.w3.org/2000/svg"><circle cx="14" cy="14" r="13.5" stroke="#f55d3e"/><path d="M14 8.447c1.81 0 2.024.007 2.738.04.43.005.855.084 1.258.233a2.244 2.244 0 0 1 1.286 1.286c.15.402.228.828.233 1.258.032.714.04.928.04 2.737 0 1.809-.007 2.023-.04 2.737a3.76 3.76 0 0 1-.233 1.259 2.243 2.243 0 0 1-1.286 1.285c-.403.15-.828.228-1.258.234-.714.032-.928.039-2.737.039-1.81 0-2.024-.007-2.738-.04a3.758 3.758 0 0 1-1.258-.233 2.244 2.244 0 0 1-1.286-1.285 3.758 3.758 0 0 1-.233-1.259c-.032-.714-.04-.928-.04-2.737 0-1.809.008-2.023.04-2.737.005-.43.084-.855.233-1.258a2.243 2.243 0 0 1 1.286-1.286c.403-.15.829-.228 1.258-.233.715-.033.929-.04 2.738-.04zm0-1.22c-1.838 0-2.07.007-2.792.04a4.973 4.973 0 0 0-1.645.315c-.452.17-.861.437-1.2.782a3.318 3.318 0 0 0-.782 1.2 4.974 4.974 0 0 0-.314 1.645c-.033.721-.04.953-.04 2.792 0 1.838.007 2.07.04 2.793.011.562.118 1.118.315 1.645.17.452.437.861.782 1.2.338.344.747.611 1.2.781a4.972 4.972 0 0 0 1.645.315c.722.032.953.04 2.792.04 1.84 0 2.07-.007 2.793-.04a4.972 4.972 0 0 0 1.645-.315 3.468 3.468 0 0 0 1.981-1.982 4.974 4.974 0 0 0 .315-1.645c.032-.722.04-.954.04-2.792 0-1.839-.008-2.07-.04-2.793a4.974 4.974 0 0 0-.316-1.645 3.32 3.32 0 0 0-.781-1.2 3.319 3.319 0 0 0-1.2-.782 4.974 4.974 0 0 0-1.645-.314c-.722-.033-.954-.04-2.792-.04z" fill="#f55d3e"/><path d="M14.002 10.523a3.479 3.479 0 1 0 0 6.958 3.479 3.479 0 0 0 0-6.958zm0 5.737a2.258 2.258 0 1 1 0-4.516 2.258 2.258 0 0 1 0 4.516zm3.616-5.062a.813.813 0 1 0 0-1.626.813.813 0 0 0 0 1.626z" fill="#f55d3e"/></svg><svg viewBox="0 0 71 40" id="logo" xmlns="http://www.w3.org/2000/svg"><path fill="none" d="M-1-1h73v42H-1z"/><ellipse ry="19.459" rx="19.73" cy="19.582" cx="19.865" fill="#070707"/><text font-style="italic" stroke="#000" font-family="Georgia, Times, 'Times New Roman', serif" font-size="16" y="25.541" x="1.638" stroke-width="0" fill="#f55d3e">Misu</text><text font-style="italic" stroke="#000" font-family="Georgia, Times, 'Times New Roman', serif" font-size="16" y="25.541" x="37.66" stroke-width="0" fill="#070707">Tera</text></svg><svg viewBox="0 0 40 40" id="logo-icon" xmlns="http://www.w3.org/2000/svg"><path fill="none" d="M-1-1h42v42H-1z"/><ellipse ry="19.459" rx="19.73" cy="19.582" cx="19.865" fill="#070707"/><text font-style="italic" stroke="#000" font-family="Georgia, Times, 'Times New Roman', serif" font-size="16" y="25.541" x="1.638" stroke-width="0" fill="#f55d3e">Misu</text></svg><svg viewBox="0 0 32 32" id="twitter" xmlns="http://www.w3.org/2000/svg"><g fill="#f55d3e"><path d="M16-.035C7.159-.035-.035 7.159-.035 16S7.159 32.035 16 32.035 32.035 24.841 32.035 16 24.841-.035 16-.035zm0 31C7.748 30.965 1.035 24.252 1.035 16S7.748 1.035 16 1.035 30.965 7.748 30.965 16 24.252 30.965 16 30.965z"/><path d="M24.797 11.082a6.856 6.856 0 0 1-.083.036 3.73 3.73 0 0 0 .319-.725.499.499 0 0 0-.731-.582 6.065 6.065 0 0 1-1.673.681 3.786 3.786 0 0 0-6.331 2.988 8.854 8.854 0 0 1-5.797-3.195.5.5 0 0 0-.82.064 3.787 3.787 0 0 0-.512 1.902c0 .667.15 1.29.432 1.832a.513.513 0 0 0-.412.116.543.543 0 0 0-.189.412c0 1.157.547 2.218 1.422 2.921l-.021.022a.502.502 0 0 0-.102.484 3.784 3.784 0 0 0 2.242 2.373 6.193 6.193 0 0 1-3.487.616.5.5 0 0 0-.326.918 9.808 9.808 0 0 0 5.302 1.554c6.159 0 9.839-5.002 9.839-9.839l-.001-.18a7.063 7.063 0 0 0 1.547-1.664.5.5 0 0 0-.618-.734zm-1.729 1.747a.5.5 0 0 0-.208.431c.006.133.009.267.009.4 0 4.345-3.306 8.839-8.839 8.839a8.805 8.805 0 0 1-3.023-.534 7.03 7.03 0 0 0 3.152-1.406.5.5 0 0 0-.299-.893 2.796 2.796 0 0 1-2.266-1.227c.246-.015.482-.056.742-.126a.5.5 0 0 0-.033-.973 2.895 2.895 0 0 1-2.212-2.076l.125.044c.251.09.45.162.828.173a.502.502 0 0 0 .294-.916c-.741-.495-1.166-1.339-1.166-2.316 0-.247.033-.491.096-.726a9.851 9.851 0 0 0 6.588 3.005.476.476 0 0 0 .408-.179.5.5 0 0 0 .104-.434 2.785 2.785 0 0 1 4.742-2.537.503.503 0 0 0 .462.148 7.26 7.26 0 0 0 .654-.162 2.894 2.894 0 0 1-.366.262.499.499 0 0 0 .316.925 7.56 7.56 0 0 0 .302-.042 6.272 6.272 0 0 1-.41.32z"/></g></svg><svg viewBox="0 0 256 256" id="vk" xmlns="http://www.w3.org/2000/svg"><path d="M128 10.24C63.024 10.24 10.24 63.024 10.24 128S63.024 245.76 128 245.76 245.76 192.976 245.76 128 192.976 10.24 128 10.24zm0 10.24c59.442 0 107.52 48.078 107.52 107.52 0 59.442-48.078 107.52-107.52 107.52-59.442 0-107.52-48.078-107.52-107.52C20.48 68.558 68.558 20.48 128 20.48zM76.81 92.16l-20.66.01s-1.182-.067-2.61.12-3.537.273-5.7 2.72l-.01.01-.01.01c-1.924 2.2-1.85 4.76-1.61 6.17.24 1.404.776 2.452.78 2.46v.01c.199.487 15.2 37.242 34.11 56.99 13.339 13.939 27.605 18.54 40.31 18.54H128c2.168 0 4.104-.099 6.25-1.21s3.99-4.178 3.99-6.56c0-2.566.063-5.054.39-6.44.305-1.295.188-.977.31-.98.123.027.346.078.77.27.913.413 2.325 1.335 3.89 2.55 3.126 2.427 6.828 5.947 10.98 8.67 5.947 3.941 12.4 3.7 12.4 3.7h21.28l.23-.02s3.265-.074 6.62-2.13c1.677-1.028 3.67-2.914 4.34-5.74.67-2.827-.185-5.792-1.83-8.4-.6-.957-3.517-5.184-15.16-15.52-3.008-2.668-5.059-4.556-5.87-5.56-.288-.357-.312-.322-.37-.34.068-.175.74-1.592 2.54-3.93 1.875-2.437 4.725-5.833 8.39-10.5 4.67-5.95 7.948-11.672 10.01-16.5 1.031-2.414 1.762-4.604 2.2-6.59.438-1.986.788-3.636.14-5.99-.483-1.752-1.794-3.322-3.08-4.15-1.286-.829-2.484-1.14-3.56-1.34-2.152-.4-4.05-.33-5.82-.33-3.706 0-20.18.13-21.54.13-1.596 0-4.142.665-5.32 1.34-2.925 1.675-3.84 3.97-3.84 3.97l-.28.49-.16.55s-3.751 12.135-7.61 18.39h-.01c-4.537 7.368-7.922 10.29-9.41 11.12-.158.088-.07.041-.18.1-.116-.34-.263-.806-.36-1.67-.218-1.947-.09-4.688-.09-7.34 0-7.344.552-11.924-.06-16.26-.306-2.168-1.084-4.583-2.86-6.44-1.776-1.858-4.07-2.772-6.36-3.3h-.01c-2.387-.55-4.96-1.022-11.14-1.08-7.874-.073-13.003.17-17.56 2.2l-.05.03-.04.02c-1.8.846-3.22 1.815-4.47 3.11-.625.647-1.366 1.119-1.88 3.18-.257 1.03-.285 2.98.88 4.56 1.165 1.58 2.798 2.056 3.76 2.18-.177-.023.757.183 1.48.54.723.357 1.35.872 1.51 1.08v.01c-.067-.087.627 1.638.81 3.21.183 1.572.15 2.84.15 2.84l-.01.31.03.31s.314 3.479.15 7.07c-.082 1.796-.31 3.603-.61 4.71-.016.059-.023.038-.04.09-1.282-.895-4.238-4.015-8.31-10.74-3.764-6.221-7.29-17.41-7.29-17.41l-.08-.25-.09-.24s-.657-2.5-3.56-4.54c-2.72-1.915-5.31-2.18-5.31-2.18zm-1.19 10.24c.293.107.905.328 1.02.38l-.12-.36s.158.362.16.37l.02.01v.01h.01c-.257-.18-.04-.001-.01.04.141.482 3.268 11.251 8.15 19.32 4.448 7.345 7.734 11.46 11.32 13.92 3.583 2.457 8.401 2.204 10.85.93 3.273-1.7 4.188-4.493 4.82-6.82.632-2.327.858-4.687.96-6.92.195-4.26-.138-7.744-.17-8.09.005-.192.05-1.857-.21-4.1-.263-2.26-.734-5.07-2.74-7.89 2.247-.334 3.495-.842 8.03-.8 5.784.054 6.664.296 8.94.82 1.24.286 1.377.523 1.26.4-.117-.123-.01-.205.13.79.28 1.99-.04 7.09-.04 14.83 0 2.182-.21 5.258.15 8.48.36 3.22 1.367 7.34 5.26 9.75 2.218 1.373 6.456 1.845 10.45-.38 3.994-2.225 8.093-6.493 13.14-14.69 4.986-8.082 7.967-18.707 8.29-19.83l.09-.06c.09.004-.025.02.12.02 1.897 0 18.078-.13 21.54-.13.953 0 1.37.051 2.08.08a27.319 27.319 0 0 1-1.38 4.05c-1.664 3.895-4.52 8.948-8.65 14.21-3.56 4.534-6.325 7.822-8.44 10.57-2.115 2.748-3.776 4.916-4.47 8.05-.694 3.134.63 6.67 2.44 8.91s4.05 4.128 7.04 6.78c11.264 10 13.113 13.028 13.29 13.31v.01c.19.302.067-.002.14.15-.639.2-1.399.424-1.47.44h-20.75s-3.81-.125-6.64-2l-.01-.01h-.01c-2.993-1.96-6.61-5.322-10.33-8.21-1.86-1.444-3.754-2.797-5.95-3.79-2.196-.993-4.98-1.697-7.91-.82-4.24 1.27-6.594 5.305-7.35 8.51-.543 2.3-.462 4.301-.48 6.31-.146.008-.02.01-.19.01h-6.59c-10.406 0-21.233-3.177-32.91-15.38-15.182-15.854-28.727-46.513-30.76-51.17zm89.31.04c-.093.02.173.04.39.06-.03.016.002-.014-.04.01-.004-.086-.225-.098-.35-.07z" fill="#f55d3e" font-family="none" font-weight="none" font-size="none" text-anchor="none"/></svg></svg>